# File created by Blade
# Date/Time:  Tue Sep 30 19:36:36 2014
#---------------------------------------------------------
:version 1.10
:name HOM
:units
  mass 1.0
  length 1.000000
  angle deg
:documentation
     Acclaim Skeleton File
:root
   axis xyz
   order TX TY TZ RX RY RZ
   position 0.000000 0.000000 0.000000
   orientation 0 0 0
:bonedata
   begin
      id 1
      name Spine_dum
      direction 0.000000 1.000000 0.000000
      length 3.241213
      axis 0.0 0.0 0.0 xyz
   end
   begin
      id 2
      name LeftUpLeg_dum
      direction 1.000000 0.000000 0.000000
      length 3.434019
      axis 0.0 0.0 0.0 xyz
   end
   begin
      id 3
      name RightUpLeg_dum
      direction -1.000000 0.000000 0.000000
      length 3.434019
      axis 0.0 0.0 0.0 xyz
   end
   begin
      id 4
      name Spine
      direction 0.000000 1.000000 0.000000
      length 0.000000
      axis 0.0 0.0 0.0 xyz
      dof rx ry rz
   end
   begin
      id 5
      name Spine_dum1
      direction 0.000000 1.000000 0.000000
      length 18.382958
      axis 0.0 0.0 0.0 xyz
   end
   begin
      id 6
      name Spine_dum2
      direction 0.000000 1.000000 0.000000
      length 12.828261
      axis 0.0 0.0 0.0 xyz
   end
   begin
      id 7
      name Spine_dum3
      direction 0.000000 1.000000 0.000000
      length 12.828261
      axis 0.0 0.0 0.0 xyz
   end
   begin
      id 8
      name Head
      direction 0.000000 1.000000 0.000000
      length 4.527550
      axis 0.0 0.0 0.0 xyz
      dof rx ry rz
   end
   begin
      id 9
      name LeftShoulder
      direction 1.000000 0.000000 0.000000
      length 7.748055
      axis 0.0 0.0 -90.0 xyz
      dof rx ry rz
   end
   begin
      id 10
      name LeftArm
      direction 1.000000 0.000000 0.000000
      length 10.635614
      axis 0.0 0.0 -90.0 xyz
      dof rx ry rz
   end
   begin
      id 11
      name LeftForeArm
      direction 1.000000 0.000000 0.000000
      length 8.346755
      axis 0.0 0.0 -90.0 xyz
      dof ry rz rx
   end
   begin
      id 12
      name LeftHand
      direction 0.000000 0.000000 0.000000
      length 0.000000
      axis 0.0 0.0 -90.0 xyz
      dof rx ry rz
   end
   begin
      id 13
      name LeftHand_dum1
      direction 0.000000 0.000000 0.000000
      length 0.000000
      axis 0.0 0.0 -90.0 xyz
   end
   begin
      id 14
      name LeftHand_dum2
      direction 1.000000 0.000000 0.000000
      length 3.937000
      axis 0.0 0.0 -90.0 xyz
   end
   begin
      id 15
      name LeftHandThumb1
      direction 0.000000 0.000000 1.000000
      length 3.937000
      axis 0.0 0.0 -90.0 xyz
      dof rx rz ry
   end
   begin
      id 16
      name RightShoulder
      direction -1.000000 0.000000 0.000000
      length 7.748055
      axis 0.0 0.0 90.0 xyz
      dof rx ry rz
   end
   begin
      id 17
      name RightArm
      direction -1.000000 0.000000 0.000000
      length 10.635614
      axis 0.0 0.0 90.0 xyz
      dof rx ry rz
   end
   begin
      id 18
      name RightForeArm
      direction -1.000000 0.000000 0.000000
      length 8.346755
      axis 0.0 0.0 90.0 xyz
      dof ry rz rx
   end
   begin
      id 19
      name RightHand
      direction 0.000000 0.000000 0.000000
      length 0.000000
      axis 0.0 0.0 90.0 xyz
      dof rx ry rz
   end
   begin
      id 20
      name RightHand_dum1
      direction 0.000000 0.000000 0.000000
      length 0.000000
      axis 0.0 0.0 90.0 xyz
   end
   begin
      id 21
      name RightHand_dum2
      direction -1.000000 0.000000 0.000000
      length 3.937000
      axis 0.0 0.0 90.0 xyz
   end
   begin
      id 22
      name RightHandThumb1
      direction 0.000000 0.000000 1.000000
      length 3.937000
      axis 0.0 0.0 90.0 xyz
      dof rx rz ry
   end
   begin
      id 23
      name LeftUpLeg
      direction 0.000000 -1.000000 0.000000
      length 15.713025
      axis 0.0 0.0 0.0 xyz
      dof rx ry rz
   end
   begin
      id 24
      name LeftLeg
      direction 0.000000 -1.000000 0.000000
      length 14.435119
      axis 0.0 0.0 0.0 xyz
      dof rx ry rz
   end
   begin
      id 25
      name LeftFoot
      direction 0.000000 -0.258819 0.965926
      length 4.938895
      axis 15.0 0.0 0.0 xyz
      dof rx ry rz
   end
   begin
      id 26
      name LeftToeBase
      direction 0.000000 0.000000 1.000000
      length 2.952750
      axis 0.0 0.0 0.0 xyz
      dof rx ry rz
   end
   begin
      id 27
      name RightUpLeg
      direction 0.000000 -1.000000 0.000000
      length 15.713025
      axis 0.0 0.0 0.0 xyz
      dof rx ry rz
   end
   begin
      id 28
      name RightLeg
      direction 0.000000 -1.000000 0.000000
      length 14.435119
      axis 0.0 0.0 0.0 xyz
      dof rx ry rz
   end
   begin
      id 29
      name RightFoot
      direction 0.000000 -0.258819 0.965926
      length 4.938895
      axis 15.0 0.0 0.0 xyz
      dof rx ry rz
   end
   begin
      id 30
      name RightToeBase
      direction 0.000000 0.000000 1.000000
      length 2.952750
      axis 0.0 0.0 0.0 xyz
      dof rx ry rz
   end
:hierarchy
   begin
      root Spine_dum LeftUpLeg_dum RightUpLeg_dum
      Spine_dum Spine
      LeftUpLeg_dum LeftUpLeg
      RightUpLeg_dum RightUpLeg
      Spine Spine_dum1 Spine_dum2 Spine_dum3
      Spine_dum1 Head
      Spine_dum2 LeftShoulder
      Spine_dum3 RightShoulder
      LeftShoulder LeftArm
      LeftArm LeftForeArm
      LeftForeArm LeftHand
      LeftHand LeftHand_dum1 LeftHand_dum2
      LeftHand_dum1 LeftHandThumb1
      RightShoulder RightArm
      RightArm RightForeArm
      RightForeArm RightHand
      RightHand RightHand_dum1 RightHand_dum2
      RightHand_dum1 RightHandThumb1
      LeftUpLeg LeftLeg
      LeftLeg LeftFoot
      LeftFoot LeftToeBase
      RightUpLeg RightLeg
      RightLeg RightFoot
      RightFoot RightToeBase
   end

# File created by Blade
# Date/Time:  Tue Sep 23 19:22:32 2014
# Frame Rate: 120.000 fps
#------------------------------------------------------
:FULLY-SPECIFIED
:DEGREES
713
root 0.967610 34.297313 -1.926578 105.552464 -0.740873 -32.726238
Spine -61.592826 -5.502858 26.866736
Head -13.617981 28.926510 38.925264
LeftShoulder -18.470727 38.293789 33.173647
LeftArm 59.334220 -69.071291 -78.837491
LeftForeArm 19.788447 0.000000 108.875752
LeftHand 33.351512 0.000000 21.618157
LeftHandThumb1 -26.253704 0.000000 33.147579
RightShoulder -42.748543 -45.342978 4.473872
RightArm 33.143129 53.274641 73.008357
RightForeArm 84.969472 -0.000000 1.868507
RightHand 11.372446 -0.000000 19.445164
RightHandThumb1 -24.326973 -0.000000 -32.862282
LeftUpLeg -96.695475 33.855476 17.734675
LeftLeg 2.850412 -0.000000 -0.000000
LeftFoot 3.064933 9.134436 18.745609
LeftToeBase 1.358790 -0.000000 -0.000000
RightUpLeg 6.934794 10.958948 -29.979015
RightLeg 76.959371 -0.000000 -0.000000
RightFoot 45.595601 17.581160 -3.930573
RightToeBase 33.317937 -0.000000 -0.000000
714
root 0.948496 34.305298 -1.909129 105.613852 -0.723411 -32.762092
Spine -61.889480 -5.506967 26.940810
Head -13.291194 28.825405 39.325659
LeftShoulder -18.524253 38.339664 33.166779
LeftArm 58.894607 -68.973935 -78.412614
LeftForeArm 20.436900 -0.000000 108.706104
LeftHand 32.983405 -0.000000 22.084882
LeftHandThumb1 -26.253704 0.000000 33.147579
RightShoulder -42.689499 -45.256460 4.351492
RightArm 33.089103 53.416879 72.899651
RightForeArm 84.942688 -0.000000 1.839416
RightHand 11.211722 -0.000000 19.663186
RightHandThumb1 -24.326973 -0.000000 -32.862282
LeftUpLeg -96.862196 33.925317 17.160498
LeftLeg 2.547973 -0.000000 -0.000000
LeftFoot 2.873920 8.672481 18.207416
LeftToeBase 1.539969 -0.000000 -0.000000
RightUpLeg 6.925513 10.722261 -30.010662
RightLeg 76.803227 -0.000000 -0.000000
RightFoot 45.660589 17.418511 -3.767647
RightToeBase 33.310587 -0.000000 -0.000000
715
root 0.931731 34.313816 -1.892916 105.697172 -0.761978 -32.785277
Spine -62.210204 -5.512864 26.902049
Head -12.970989 28.664668 39.722836
LeftShoulder -18.457470 38.246904 33.306557
LeftArm 58.121638 -68.831940 -77.742973
LeftForeArm 20.587079 -0.000000 108.550511
LeftHand 32.720148 -0.000000 22.228664
LeftHandThumb1 -26.253704 0.000000 33.147579
RightShoulder -42.700933 -45.082402 4.249963
RightArm 32.947208 53.486631 72.687321
RightForeArm 84.919771 -0.000000 1.842327
RightHand 11.290070 -0.000000 19.554056
RightHandThumb1 -24.326973 -0.000000 -32.862282
LeftUpLeg -97.134323 33.966409 16.426748
LeftLeg 2.287860 -0.000000 -0.000000
LeftFoot 2.562158 8.178562 17.534274
LeftToeBase 1.991333 -0.000000 -0.000000
RightUpLeg 6.921010 10.432782 -30.127956
RightLeg 76.629633 -0.000000 -0.000000
RightFoot 45.725363 17.461351 -3.643928
RightToeBase 33.244879 -0.000000 -0.000000
716
root 0.914645 34.321946 -1.875585 105.816397 -0.816043 -32.814946
Spine -62.575083 -5.520467 26.879021
Head -12.666992 28.533651 40.099743
LeftShoulder -18.353467 38.142305 33.490877
LeftArm 57.398783 -68.691264 -77.169172
LeftForeArm 20.402052 -0.000000 108.319184
LeftHand 32.869771 0.000000 22.149060
LeftHandThumb1 -26.253704 0.000000 33.147579
RightShoulder -42.626426 -44.964202 4.104909
RightArm 32.839238 53.682094 72.598048
RightForeArm 84.874955 -0.000000 1.932868
RightHand 11.228577 -0.000000 19.461402
RightHandThumb1 -24.326973 -0.000000 -32.862282
LeftUpLeg -97.472052 34.026457 15.634230
LeftLeg 2.071663 -0.000000 -0.000000
LeftFoot 2.432746 7.579558 17.055127
LeftToeBase 1.754381 -0.000000 -0.000000
RightUpLeg 6.896264 10.136591 -30.262179
RightLeg 76.403370 -0.000000 -0.000000
RightFoot 45.972198 17.632022 -3.386016
RightToeBase 33.044482 -0.000000 -0.000000
